<?xml version="1.0" encoding="UTF-8" standalone="no"?>
<!-- Generator: Adobe Illustrator 16.0.0, SVG Export Plug-In . SVG Version: 6.00 Build 0)  -->

<svg
   xmlns:dc="http://purl.org/dc/elements/1.1/"
   xmlns:cc="http://creativecommons.org/ns#"
   xmlns:rdf="http://www.w3.org/1999/02/22-rdf-syntax-ns#"
   xmlns:svg="http://www.w3.org/2000/svg"
   xmlns="http://www.w3.org/2000/svg"
   xmlns:sodipodi="http://sodipodi.sourceforge.net/DTD/sodipodi-0.dtd"
   xmlns:inkscape="http://www.inkscape.org/namespaces/inkscape"
   version="1.1"
   id="Capa_1"
   x="0px"
   y="0px"
   width="487.80908"
   height="335.42679"
   viewBox="0 0 487.80908 335.42679"
   xml:space="preserve"
   sodipodi:docname="running.svg"
   inkscape:version="0.92.1 r15371"><metadata
     id="metadata54"><rdf:RDF><cc:Work
         rdf:about=""><dc:format>image/svg+xml</dc:format><dc:type
           rdf:resource="http://purl.org/dc/dcmitype/StillImage" /><dc:title></dc:title></cc:Work></rdf:RDF></metadata><defs
     id="defs52" /><sodipodi:namedview
     pagecolor="#ffffff"
     bordercolor="#666666"
     borderopacity="1"
     objecttolerance="10"
     gridtolerance="10"
     guidetolerance="10"
     inkscape:pageopacity="0"
     inkscape:pageshadow="2"
     inkscape:window-width="1280"
     inkscape:window-height="656"
     id="namedview50"
     showgrid="false"
     fit-margin-top="0"
     fit-margin-left="0"
     fit-margin-right="0"
     fit-margin-bottom="0"
     inkscape:zoom="0.39983051"
     inkscape:cx="180.94091"
     inkscape:cy="100.76953"
     inkscape:window-x="0"
     inkscape:window-y="27"
     inkscape:window-maximized="1"
     inkscape:current-layer="Capa_1" /><path
     d="m 385.72852,0 c -21.605,0 -39.11914,17.513281 -39.11914,39.113284 -10e-4,21.601 17.51314,39.11328 39.11914,39.11328 21.6,0 39.11132,-17.51228 39.11132,-39.11328 C 424.83984,17.512282 407.32752,0 385.72852,0 Z M 150.46289,19.007813 c -3.955,0 -7.16016,3.205156 -7.16016,7.160161 0,3.95499 3.20516,7.1621 7.16016,7.1621 h 150.51172 c 3.955,0 7.16016,-3.20711 7.16016,-7.1621 0,-3.955005 -3.20516,-7.160161 -7.16016,-7.160161 z m 142.92383,38.917971 c -31.00959,0.2976 -59.49539,16.4775 -81.29102,46.999996 -14.819,20.771 19.45442,40.46064 34.10742,19.93164 18.01801,-25.231996 40.92933,-32.533016 65.98633,-24.54102 -12.83,22.27 -24.047,44.40357 -39.875,75.85157 -15.832,31.44799 -50.78604,56.56192 -84.37304,36.91992 -24.235,-14.165 -46.08974,20.65243 -21.92774,34.77343 45.854,26.799 99.61745,10.34186 127.06445,-24.49414 0.952,0.509 1.95851,0.96752 3.0625,1.35352 22.42201,7.812 51.81354,28.61142 60.76954,35.98242 8.953,7.371 24.33765,44.92011 33.47265,63.78711 11.082,22.893 46.87105,6.21852 35.74805,-16.77148 -10.355,-21.406 -27.73597,-64.1285 -41.29297,-74.9375 -10.875,-8.669 -31.98948,-24.80208 -49.89648,-33.95508 12.115,-23.466 24.72881,-46.68019 38.00781,-69.49219 42.328,12.969 82.56084,-2.30731 111.21484,-42.445306 14.831,-20.768 -19.43365,-40.45678 -34.09765,-19.92578 -22.459,31.459 -52.53253,35.102616 -84.89453,15.89062 -2.203,-1.306 -11.97858,-6.69056 -14.14258,-7.97656 -19.52288,-11.58975 -39.03683,-17.12973 -57.64258,-16.95117 z M 15.853516,89.025394 c -3.955,0 -7.1621097,3.20515 -7.1621098,7.16015 0,3.954996 3.2071098,7.160156 7.1621098,7.160156 H 166.36328 c 3.955,0 7.16211,-3.20516 7.16211,-7.160156 0,-3.955 -3.20711,-7.16015 -7.16211,-7.16015 z m 47.566406,80.837886 c -3.955,0 -7.162109,3.20515 -7.16211,7.16015 0,3.955 3.20711,7.16211 7.16211,7.16211 H 213.92969 c 3.955,0 7.16211,-3.20711 7.16211,-7.16211 0,-3.955 -3.20711,-7.16015 -7.16211,-7.16015 z M 7.1601562,260.24804 C 3.2051563,260.24804 0,263.4532 0,267.4082 c 0,3.955 3.2051563,7.16211 7.1601562,7.16211 H 142.39648 c 3.955,0 7.16016,-3.20711 7.16016,-7.16211 0,-3.955 -3.20516,-7.16016 -7.16016,-7.16016 z"
     id="path2"
     inkscape:connector-curvature="0"
     style="fill:#000000;fill-opacity:1" /></svg>