<?xml version="1.0" encoding="UTF-8" standalone="no"?>
<!-- Created with Inkscape (http://www.inkscape.org/) -->

<svg
   xmlns:dc="http://purl.org/dc/elements/1.1/"
   xmlns:cc="http://creativecommons.org/ns#"
   xmlns:rdf="http://www.w3.org/1999/02/22-rdf-syntax-ns#"
   xmlns:svg="http://www.w3.org/2000/svg"
   xmlns="http://www.w3.org/2000/svg"
   xmlns:sodipodi="http://sodipodi.sourceforge.net/DTD/sodipodi-0.dtd"
   xmlns:inkscape="http://www.inkscape.org/namespaces/inkscape"
   version="1.1"
   id="svg4520"
   width="481.01001"
   height="631.41522"
   viewBox="0 0 481.01001 631.41522"
   sodipodi:docname="doggo-logo.svg"
   inkscape:version="0.92.1 r15371">
  <metadata
     id="metadata4526">
    <rdf:RDF>
      <cc:Work
         rdf:about="">
        <dc:format>image/svg+xml</dc:format>
        <dc:type
           rdf:resource="http://purl.org/dc/dcmitype/StillImage" />
        <dc:title></dc:title>
      </cc:Work>
    </rdf:RDF>
  </metadata>
  <defs
     id="defs4524" />
  <sodipodi:namedview
     pagecolor="#ffffff"
     bordercolor="#666666"
     borderopacity="1"
     objecttolerance="10"
     gridtolerance="10"
     guidetolerance="10"
     inkscape:pageopacity="0"
     inkscape:pageshadow="2"
     inkscape:window-width="1280"
     inkscape:window-height="720"
     id="namedview4522"
     showgrid="false"
     inkscape:snap-global="true"
     inkscape:zoom="0.54135482"
     inkscape:cx="107.898"
     inkscape:cy="304.14879"
     inkscape:window-x="0"
     inkscape:window-y="0"
     inkscape:window-maximized="1"
     inkscape:current-layer="layer2"
     fit-margin-top="0"
     fit-margin-left="0"
     fit-margin-right="-0.1"
     fit-margin-bottom="0"
     inkscape:snap-nodes="true"
     inkscape:snap-page="true"
     inkscape:snap-grids="true"
     inkscape:object-nodes="false"
     inkscape:snap-object-midpoints="false"
     inkscape:snap-others="false"
     inkscape:snap-bbox="true"
     inkscape:bbox-paths="false"
     inkscape:bbox-nodes="true"
     inkscape:snap-bbox-edge-midpoints="false" />
  <g
     inkscape:groupmode="layer"
     id="layer1"
     inkscape:label="Layer 1"
     style="display:inline"
     transform="translate(-4201.4276,-5148.9258)" />
  <g
     inkscape:groupmode="layer"
     id="layer2"
     inkscape:label="Layer 2"
     transform="translate(-4201.4276,-5148.9258)">
    <path
       style="opacity:1;fill:#287330;fill-opacity:1;stroke:none;stroke-width:1;stroke-linecap:butt;stroke-linejoin:round;stroke-miterlimit:4;stroke-dasharray:none;stroke-dashoffset:0;stroke-opacity:1;paint-order:normal"
       d="m 4351.5742,5206.7871 a 256.86119,256.7795 0 0 0 -150.1465,48.8301 v 415.9922 a 256.86119,256.7795 0 0 0 150.1465,48.7383 256.86119,256.7795 0 0 0 256.8613,-256.7793 256.86119,256.7795 0 0 0 -256.8613,-256.7813 z m 0.7578,87.084 c 0.1868,-0.01 0.3632,-0.01 0.5235,0.018 2.5647,0.3653 15.7539,31.039 15.7539,31.039 l 10.2578,2.1914 11.3594,30.3086 15.3867,15.3379 -13.8184,3.6524 c 0,0 9.6887,20.5205 13.625,28.3672 3.9364,7.8466 5.1485,28.6718 5.1485,28.6718 0,0 43.2988,53.4179 43.2988,62.7735 8.7813,-2.7161 24.5273,33.498 24.5273,33.498 l -4.5429,6.3379 6.3593,3.3203 -3.33,6.3379 8.4785,12.6738 -0.6074,4.2266 c -56.9257,36.5172 -134.0958,27.418 -134.0958,27.418 l 4.0313,-7.3047 5.8613,-7.668 15.3887,-8.7637 20.5176,-0.3652 -8.793,-8.0332 v -24.1016 l -3.6641,-1.4609 -1.832,4.3809 -10.2598,-5.1114 -12.0898,34.6914 -16.1211,21.9102 -26.0137,-10.9551 2.9317,-4.3828 9.1582,1.0957 c 0,0 5.8639,-9.8604 6.2305,-15.7031 0.3663,-5.8428 0.3652,-58.791 0.3652,-58.791 l -5.8613,-7.3047 -5.4961,-46.0117 -4.3965,-7.3028 -0.3672,-49.2988 13.1894,-27.752 v -22.2753 c 0,0 -5.8609,-9.8598 -8.4257,-12.0508 -2.5646,-2.1911 2.5645,-17.8925 4.3964,-16.7969 1.8318,1.0955 4.7622,4.3814 5.8614,7.668 1.0992,3.2865 7.6953,0.3652 7.6953,0.3652 0,0 -1.0993,-15.3366 0,-18.2578 1.0302,-2.7389 6.5676,-6.4406 9.3691,-6.5918 z"
       id="path4570-5-2-3"
       inkscape:connector-curvature="0" />
    <path
       style="opacity:1;fill:none;fill-opacity:1;stroke:#bdbdbd;stroke-width:15;stroke-linecap:butt;stroke-linejoin:round;stroke-miterlimit:4;stroke-dasharray:none;stroke-dashoffset:0;stroke-opacity:1;paint-order:normal"
       d="m 4338.4275,5748.1586 c 6.6207,0.5974 13.2604,0.9606 19.9066,1.089 156.5149,1e-4 283.3954,-127.4261 283.3955,-284.6143 -10e-5,-157.1881 -126.8806,-284.6142 -283.3955,-284.6141 -6.6457,0.1126 -13.2854,0.4599 -19.9066,1.0413"
       id="path4570-5-0-9-3"
       inkscape:connector-curvature="0"
       sodipodi:nodetypes="ccccc" />
  </g>
</svg>
